<?xml version="1.0" standalone="no"?>
<!DOCTYPE svg PUBLIC "-//W3C//DTD SVG 20010904//EN"
 "http://www.w3.org/TR/2001/REC-SVG-20010904/DTD/svg10.dtd">
<svg version="1.0" xmlns="http://www.w3.org/2000/svg"
 width="157.000000pt" height="142.000000pt" viewBox="0 0 157.000000 142.000000"
 preserveAspectRatio="xMidYMid meet">
<metadata>
Created by potrace 1.10, written by Peter Selinger 2001-2011
</metadata>
<g transform="translate(0.000000,142.000000) scale(0.100000,-0.100000)"
fill="#000000" stroke="none">
<path d="M635 1396 c-175 -35 -299 -99 -421 -221 -75 -75 -98 -105 -133 -176
-94 -195 -94 -383 0 -578 34 -70 58 -102 133 -177 81 -81 104 -98 196 -142
125 -60 202 -80 330 -89 297 -18 595 131 733 367 121 208 121 458 0 658 -138
228 -369 358 -653 368 -73 2 -140 -1 -185 -10z m375 -56 c128 -37 224 -94 321
-190 135 -135 192 -266 192 -440 0 -175 -57 -305 -193 -442 -73 -72 -102 -93
-181 -131 -117 -57 -187 -76 -311 -84 -380 -24 -716 215 -780 557 -34 181 36
392 177 534 107 108 240 179 395 212 94 19 284 12 380 -16z"/>
<path d="M501 1086 c-44 -37 -88 -66 -98 -66 -41 -1 -45 -14 -24 -71 12 -30
21 -68 21 -86 0 -28 -4 -34 -32 -41 -28 -7 -34 -14 -38 -43 -4 -28 -9 -34 -30
-34 -23 0 -25 -4 -28 -52 -3 -44 0 -52 18 -58 18 -6 20 -15 20 -76 l0 -69 -30
0 -31 0 3 -61 3 -60 250 -5 c138 -3 363 -6 500 -7 l250 -2 3 42 c3 34 -1 44
-17 53 -19 9 -21 20 -21 90 0 73 2 80 20 80 35 0 58 84 26 96 -8 3 -18 19 -21
35 -4 16 -13 29 -20 29 -13 0 -25 21 -25 45 0 8 12 20 28 27 22 11 27 20 27
50 0 34 -8 43 -114 137 -62 56 -117 101 -122 101 -5 0 -9 -31 -9 -70 l0 -70
-205 0 -205 0 2 71 c2 48 -1 73 -9 76 -6 2 -47 -25 -92 -61z m607 -69 c23 -23
42 -45 42 -47 0 -3 -22 -3 -50 -2 l-50 4 0 44 c0 24 4 44 8 44 4 0 27 -19 50
-43z m-576 -147 c-4 -38 -6 -40 -38 -40 -35 0 -54 20 -54 59 0 18 6 21 48 21
l48 0 -4 -40z m458 -22 c0 -37 -29 -330 -36 -367 l-5 -24 -117 7 c-64 3 -155
9 -201 13 l-83 6 6 76 c9 108 27 272 32 299 4 22 5 22 204 22 l200 0 0 -32z
m138 -4 c21 -4 31 -13 35 -30 5 -27 0 -28 -77 -18 -40 6 -46 10 -46 30 0 20 5
24 29 24 16 0 42 -3 59 -6z m-626 -223 c4 -4 5 -37 1 -75 l-6 -68 -64 5 c-35
2 -67 8 -71 11 -3 4 -8 39 -10 77 l-4 70 73 -6 c41 -4 77 -10 81 -14z m668
-81 l0 -91 -82 3 -83 3 3 60 c6 119 3 115 88 115 l74 0 0 -90z"/>
</g>
</svg>
